{
    "asset" : {
        "generator" : "Khronos glTF Blender I/O v1.1.46",
        "version" : "2.0"
    },
    "scene" : 0,
    "scenes" : [
        {
            "name" : "Scene",
            "nodes" : [
                0
            ]
        }
    ],
    "nodes" : [
        {
            "mesh" : 0,
            "name" : "C10",
            "rotation" : [
                0.7071068286895752,
                0,
                0,
                0.7071067094802856
            ],
            "translation" : [
                42.462989807128906,
                0,
                -39.63163757324219
            ]
        }
    ],
    "materials" : [
        {
            "doubleSided" : true,
            "emissiveFactor" : [
                0,
                0,
                0
            ],
            "name" : "Material__2100478583",
            "pbrMetallicRoughness" : {
                "baseColorTexture" : {
                    "index" : 0,
                    "texCoord" : 0
                },
                "metallicFactor" : 0,
                "roughnessFactor" : 0.8945907354354858
            }
        },
        {
            "doubleSided" : true,
            "emissiveFactor" : [
                0,
                0,
                0
            ],
            "name" : "Material__2100478584",
            "pbrMetallicRoughness" : {
                "baseColorTexture" : {
                    "index" : 1,
                    "texCoord" : 0
                },
                "metallicFactor" : 0,
                "roughnessFactor" : 0.8945907354354858
            }
        },
        {
            "doubleSided" : true,
            "emissiveFactor" : [
                0,
                0,
                0
            ],
            "name" : "Material__2100478581",
            "pbrMetallicRoughness" : {
                "baseColorFactor" : [
                    0.13729999959468842,
                    0.18039999902248383,
                    0.2117999941110611,
                    1
                ],
                "metallicFactor" : 0,
                "roughnessFactor" : 0.8999999761581421
            }
        },
        {
            "doubleSided" : true,
            "emissiveFactor" : [
                0,
                0,
                0
            ],
            "name" : "Material__2100478585",
            "pbrMetallicRoughness" : {
                "baseColorTexture" : {
                    "index" : 2,
                    "texCoord" : 0
                },
                "metallicFactor" : 0,
                "roughnessFactor" : 0.8945907354354858
            }
        },
        {
            "doubleSided" : true,
            "emissiveFactor" : [
                0,
                0,
                0
            ],
            "name" : "Material__2100478577",
            "pbrMetallicRoughness" : {
                "baseColorTexture" : {
                    "index" : 3,
                    "texCoord" : 0
                },
                "metallicFactor" : 0,
                "roughnessFactor" : 0.8945907354354858
            }
        },
        {
            "doubleSided" : true,
            "emissiveFactor" : [
                0,
                0,
                0
            ],
            "name" : "Material__2100478586",
            "pbrMetallicRoughness" : {
                "baseColorTexture" : {
                    "index" : 4,
                    "texCoord" : 0
                },
                "metallicFactor" : 0,
                "roughnessFactor" : 0.8945907354354858
            }
        }
    ],
    "meshes" : [
        {
            "name" : "C10",
            "primitives" : [
                {
                    "attributes" : {
                        "POSITION" : 0,
                        "TEXCOORD_0" : 1
                    },
                    "indices" : 2,
                    "material" : 0
                },
                {
                    "attributes" : {
                        "POSITION" : 3,
                        "TEXCOORD_0" : 4
                    },
                    "indices" : 5,
                    "material" : 1
                },
                {
                    "attributes" : {
                        "POSITION" : 6,
                        "TEXCOORD_0" : 7
                    },
                    "indices" : 8,
                    "material" : 2
                },
                {
                    "attributes" : {
                        "POSITION" : 9,
                        "TEXCOORD_0" : 10
                    },
                    "indices" : 11,
                    "material" : 3
                },
                {
                    "attributes" : {
                        "POSITION" : 12,
                        "TEXCOORD_0" : 13
                    },
                    "indices" : 14,
                    "material" : 4
                },
                {
                    "attributes" : {
                        "POSITION" : 15,
                        "TEXCOORD_0" : 16
                    },
                    "indices" : 17,
                    "material" : 5
                }
            ]
        }
    ],
    "textures" : [
        {
            "source" : 0
        },
        {
            "source" : 1
        },
        {
            "source" : 2
        },
        {
            "source" : 3
        },
        {
            "source" : 4
        }
    ],
    "images" : [
        {
            "mimeType" : "image/jpeg",
            "name" : "wall",
            "uri" : "textures/wall.jpg"
        },
        {
            "mimeType" : "image/jpeg",
            "name" : "doorVRayCompleteMap",
            "uri" : "textures/doorVRayCompleteMap.jpg"
        },
        {
            "mimeType" : "image/jpeg",
            "name" : "funitureVRayCompleteMap",
            "uri" : "textures/funitureVRayCompleteMap.jpg"
        },
        {
            "mimeType" : "image/jpeg",
            "name" : "treeVRayCompleteMap",
            "uri" : "textures/treeVRayCompleteMap.jpg"
        },
        {
            "mimeType" : "image/jpeg",
            "name" : "furniture1VRayCompleteMap",
            "uri" : "textures/furniture1VRayCompleteMap.jpg"
        }
    ],
    "accessors" : [
        {
            "bufferView" : 0,
            "componentType" : 5126,
            "count" : 720,
            "max" : [
                -38.90679931640625,
                48.42959976196289,
                0
            ],
            "min" : [
                -46.02579879760742,
                34.32279968261719,
                -2
            ],
            "type" : "VEC3"
        },
        {
            "bufferView" : 1,
            "componentType" : 5126,
            "count" : 720,
            "type" : "VEC2"
        },
        {
            "bufferView" : 2,
            "componentType" : 5123,
            "count" : 1062,
            "type" : "SCALAR"
        },
        {
            "bufferView" : 3,
            "componentType" : 5126,
            "count" : 11840,
            "max" : [
                -39.15679931640625,
                46.990699768066406,
                0
            ],
            "min" : [
                -46.05580139160156,
                35.62480163574219,
                -2
            ],
            "type" : "VEC3"
        },
        {
            "bufferView" : 4,
            "componentType" : 5126,
            "count" : 11840,
            "type" : "VEC2"
        },
        {
            "bufferView" : 5,
            "componentType" : 5123,
            "count" : 17082,
            "type" : "SCALAR"
        },
        {
            "bufferView" : 6,
            "componentType" : 5126,
            "count" : 9007,
            "max" : [
                -39.64339828491211,
                46.96549987792969,
                -0.047200001776218414
            ],
            "min" : [
                -45.01240158081055,
                34.30080032348633,
                -2
            ],
            "type" : "VEC3"
        },
        {
            "bufferView" : 7,
            "componentType" : 5126,
            "count" : 9007,
            "type" : "VEC2"
        },
        {
            "bufferView" : 8,
            "componentType" : 5123,
            "count" : 17088,
            "type" : "SCALAR"
        },
        {
            "bufferView" : 9,
            "componentType" : 5126,
            "count" : 986233,
            "max" : [
                -39.15660095214844,
                46.70220184326172,
                0
            ],
            "min" : [
                -45.8046989440918,
                34.752498626708984,
                -1.3215999603271484
            ],
            "type" : "VEC3"
        },
        {
            "bufferView" : 10,
            "componentType" : 5126,
            "count" : 986233,
            "type" : "VEC2"
        },
        {
            "bufferView" : 11,
            "componentType" : 5125,
            "count" : 1229925,
            "type" : "SCALAR"
        },
        {
            "bufferView" : 12,
            "componentType" : 5126,
            "count" : 1694064,
            "max" : [
                -39.16740036010742,
                48.40530014038086,
                0
            ],
            "min" : [
                -45.01689910888672,
                34.579898834228516,
                -1.4627000093460083
            ],
            "type" : "VEC3"
        },
        {
            "bufferView" : 13,
            "componentType" : 5126,
            "count" : 1694064,
            "type" : "VEC2"
        },
        {
            "bufferView" : 14,
            "componentType" : 5125,
            "count" : 1876419,
            "type" : "SCALAR"
        },
        {
            "bufferView" : 15,
            "componentType" : 5126,
            "count" : 738947,
            "max" : [
                -39.149200439453125,
                43.422698974609375,
                0.053700000047683716
            ],
            "min" : [
                -45.243099212646484,
                34.29209899902344,
                -1.9591000080108643
            ],
            "type" : "VEC3"
        },
        {
            "bufferView" : 16,
            "componentType" : 5126,
            "count" : 738947,
            "type" : "VEC2"
        },
        {
            "bufferView" : 17,
            "componentType" : 5125,
            "count" : 915138,
            "type" : "SCALAR"
        }
    ],
    "bufferViews" : [
        {
            "buffer" : 0,
            "byteLength" : 8640,
            "byteOffset" : 0
        },
        {
            "buffer" : 0,
            "byteLength" : 5760,
            "byteOffset" : 8640
        },
        {
            "buffer" : 0,
            "byteLength" : 2124,
            "byteOffset" : 14400
        },
        {
            "buffer" : 0,
            "byteLength" : 142080,
            "byteOffset" : 16524
        },
        {
            "buffer" : 0,
            "byteLength" : 94720,
            "byteOffset" : 158604
        },
        {
            "buffer" : 0,
            "byteLength" : 34164,
            "byteOffset" : 253324
        },
        {
            "buffer" : 0,
            "byteLength" : 108084,
            "byteOffset" : 287488
        },
        {
            "buffer" : 0,
            "byteLength" : 72056,
            "byteOffset" : 395572
        },
        {
            "buffer" : 0,
            "byteLength" : 34176,
            "byteOffset" : 467628
        },
        {
            "buffer" : 0,
            "byteLength" : 11834796,
            "byteOffset" : 501804
        },
        {
            "buffer" : 0,
            "byteLength" : 7889864,
            "byteOffset" : 12336600
        },
        {
            "buffer" : 0,
            "byteLength" : 4919700,
            "byteOffset" : 20226464
        },
        {
            "buffer" : 0,
            "byteLength" : 20328768,
            "byteOffset" : 25146164
        },
        {
            "buffer" : 0,
            "byteLength" : 13552512,
            "byteOffset" : 45474932
        },
        {
            "buffer" : 0,
            "byteLength" : 7505676,
            "byteOffset" : 59027444
        },
        {
            "buffer" : 0,
            "byteLength" : 8867364,
            "byteOffset" : 66533120
        },
        {
            "buffer" : 0,
            "byteLength" : 5911576,
            "byteOffset" : 75400484
        },
        {
            "buffer" : 0,
            "byteLength" : 3660552,
            "byteOffset" : 81312060
        }
    ],
    "buffers" : [
        {
            "byteLength" : 84972612,
            "uri" : "scene.bin"
        }
    ]
}
