{
    "asset" : {
        "generator" : "Khronos glTF Blender I/O v1.1.46",
        "version" : "2.0"
    },
    "scene" : 0,
    "scenes" : [
        {
            "name" : "Scene",
            "nodes" : [
                0,
                1,
                2
            ]
        }
    ],
    "nodes" : [
        {
            "mesh" : 0,
            "name" : "Flat1",
            "translation" : [
                20.14531707763672,
                8.200878143310547,
                -6.137326240539551
            ]
        },
        {
            "mesh" : 1,
            "name" : "Flat2",
            "translation" : [
                20.14531707763672,
                5.177999973297119,
                -6.137326240539551
            ]
        },
        {
            "mesh" : 2,
            "name" : "Flat3",
            "translation" : [
                20.14531707763672,
                2.162123680114746,
                -6.137326240539551
            ]
        }
    ],
    "meshes" : [
        {
            "name" : "Kostka",
            "primitives" : [
                {
                    "attributes" : {
                        "POSITION" : 0,
                        "NORMAL" : 1,
                        "TEXCOORD_0" : 2
                    },
                    "indices" : 3
                }
            ]
        },
        {
            "name" : "Kostka.001",
            "primitives" : [
                {
                    "attributes" : {
                        "POSITION" : 4,
                        "NORMAL" : 5,
                        "TEXCOORD_0" : 6
                    },
                    "indices" : 3
                }
            ]
        },
        {
            "name" : "Kostka.002",
            "primitives" : [
                {
                    "attributes" : {
                        "POSITION" : 7,
                        "NORMAL" : 8,
                        "TEXCOORD_0" : 9
                    },
                    "indices" : 3
                }
            ]
        }
    ],
    "accessors" : [
        {
            "bufferView" : 0,
            "componentType" : 5126,
            "count" : 134,
            "max" : [
                9.330497741699219,
                1.9798479080200195,
                2.0480732917785645
            ],
            "min" : [
                -1,
                -1,
                -4.201111316680908
            ],
            "type" : "VEC3"
        },
        {
            "bufferView" : 1,
            "componentType" : 5126,
            "count" : 134,
            "type" : "VEC3"
        },
        {
            "bufferView" : 2,
            "componentType" : 5126,
            "count" : 134,
            "type" : "VEC2"
        },
        {
            "bufferView" : 3,
            "componentType" : 5123,
            "count" : 252,
            "type" : "SCALAR"
        },
        {
            "bufferView" : 4,
            "componentType" : 5126,
            "count" : 134,
            "max" : [
                9.330497741699219,
                1.9798479080200195,
                2.0480732917785645
            ],
            "min" : [
                -1,
                -1,
                -4.201111316680908
            ],
            "type" : "VEC3"
        },
        {
            "bufferView" : 5,
            "componentType" : 5126,
            "count" : 134,
            "type" : "VEC3"
        },
        {
            "bufferView" : 6,
            "componentType" : 5126,
            "count" : 134,
            "type" : "VEC2"
        },
        {
            "bufferView" : 7,
            "componentType" : 5126,
            "count" : 134,
            "max" : [
                9.330497741699219,
                1.9798479080200195,
                2.0480732917785645
            ],
            "min" : [
                -1,
                -1,
                -4.201111316680908
            ],
            "type" : "VEC3"
        },
        {
            "bufferView" : 8,
            "componentType" : 5126,
            "count" : 134,
            "type" : "VEC3"
        },
        {
            "bufferView" : 9,
            "componentType" : 5126,
            "count" : 134,
            "type" : "VEC2"
        }
    ],
    "bufferViews" : [
        {
            "buffer" : 0,
            "byteLength" : 1608,
            "byteOffset" : 0
        },
        {
            "buffer" : 0,
            "byteLength" : 1608,
            "byteOffset" : 1608
        },
        {
            "buffer" : 0,
            "byteLength" : 1072,
            "byteOffset" : 3216
        },
        {
            "buffer" : 0,
            "byteLength" : 504,
            "byteOffset" : 4288
        },
        {
            "buffer" : 0,
            "byteLength" : 1608,
            "byteOffset" : 4792
        },
        {
            "buffer" : 0,
            "byteLength" : 1608,
            "byteOffset" : 6400
        },
        {
            "buffer" : 0,
            "byteLength" : 1072,
            "byteOffset" : 8008
        },
        {
            "buffer" : 0,
            "byteLength" : 1608,
            "byteOffset" : 9080
        },
        {
            "buffer" : 0,
            "byteLength" : 1608,
            "byteOffset" : 10688
        },
        {
            "buffer" : 0,
            "byteLength" : 1072,
            "byteOffset" : 12296
        }
    ],
    "buffers" : [
        {
            "byteLength" : 13368,
            "uri" : "data:application/octet-stream;base64,"
        }
    ]
}
