{
    "asset" : {
        "generator" : "Khronos glTF Blender I/O v1.3.48",
        "version" : "2.0"
    },
    "scene" : 0,
    "scenes" : [
        {
            "extras" : {
                "glTF2ExportSettings" : {
                    "export_apply" : 1,
                    "export_colors" : 1,
                    "export_extras" : 1,
                    "export_format" : "GLTF_SEPARATE",
                    "export_normals" : 1,
                    "export_tangents" : 1,
                    "export_texture_dir" : "textures",
                    "use_selection" : 1
                }
            },
            "name" : "Scene",
            "nodes" : [
                0,
                1,
                2
            ]
        }
    ],
    "nodes" : [
        {
            "mesh" : 0,
            "name" : "Flat1",
            "translation" : [
                3.6799979209899902,
                8.200878143310547,
                9.597540855407715
            ]
        },
        {
            "mesh" : 1,
            "name" : "Flat2",
            "translation" : [
                3.6799979209899902,
                5.177999973297119,
                9.597540855407715
            ]
        },
        {
            "mesh" : 2,
            "name" : "Flat3",
            "translation" : [
                3.6799979209899902,
                2.162123680114746,
                9.597540855407715
            ]
        }
    ],
    "meshes" : [
        {
            "name" : "Kostka",
            "primitives" : [
                {
                    "attributes" : {
                        "POSITION" : 0,
                        "NORMAL" : 1,
                        "TANGENT" : 2,
                        "TEXCOORD_0" : 3
                    },
                    "indices" : 4
                }
            ]
        },
        {
            "name" : "Kostka.001",
            "primitives" : [
                {
                    "attributes" : {
                        "POSITION" : 5,
                        "NORMAL" : 6,
                        "TANGENT" : 7,
                        "TEXCOORD_0" : 8
                    },
                    "indices" : 4
                }
            ]
        },
        {
            "name" : "Kostka.002",
            "primitives" : [
                {
                    "attributes" : {
                        "POSITION" : 9,
                        "NORMAL" : 10,
                        "TANGENT" : 11,
                        "TEXCOORD_0" : 12
                    },
                    "indices" : 4
                }
            ]
        }
    ],
    "accessors" : [
        {
            "bufferView" : 0,
            "componentType" : 5126,
            "count" : 128,
            "max" : [
                9.330497741699219,
                1.9798479080200195,
                2.0480732917785645
            ],
            "min" : [
                -1,
                -1,
                -4.201111316680908
            ],
            "type" : "VEC3"
        },
        {
            "bufferView" : 1,
            "componentType" : 5126,
            "count" : 128,
            "type" : "VEC3"
        },
        {
            "bufferView" : 2,
            "componentType" : 5126,
            "count" : 128,
            "type" : "VEC4"
        },
        {
            "bufferView" : 3,
            "componentType" : 5126,
            "count" : 128,
            "type" : "VEC2"
        },
        {
            "bufferView" : 4,
            "componentType" : 5123,
            "count" : 252,
            "type" : "SCALAR"
        },
        {
            "bufferView" : 5,
            "componentType" : 5126,
            "count" : 128,
            "max" : [
                9.330497741699219,
                1.9798479080200195,
                2.0480732917785645
            ],
            "min" : [
                -1,
                -1,
                -4.201111316680908
            ],
            "type" : "VEC3"
        },
        {
            "bufferView" : 6,
            "componentType" : 5126,
            "count" : 128,
            "type" : "VEC3"
        },
        {
            "bufferView" : 7,
            "componentType" : 5126,
            "count" : 128,
            "type" : "VEC4"
        },
        {
            "bufferView" : 8,
            "componentType" : 5126,
            "count" : 128,
            "type" : "VEC2"
        },
        {
            "bufferView" : 9,
            "componentType" : 5126,
            "count" : 128,
            "max" : [
                9.330497741699219,
                1.9798479080200195,
                2.0480732917785645
            ],
            "min" : [
                -1,
                -1,
                -4.201111316680908
            ],
            "type" : "VEC3"
        },
        {
            "bufferView" : 10,
            "componentType" : 5126,
            "count" : 128,
            "type" : "VEC3"
        },
        {
            "bufferView" : 11,
            "componentType" : 5126,
            "count" : 128,
            "type" : "VEC4"
        },
        {
            "bufferView" : 12,
            "componentType" : 5126,
            "count" : 128,
            "type" : "VEC2"
        }
    ],
    "bufferViews" : [
        {
            "buffer" : 0,
            "byteLength" : 1536,
            "byteOffset" : 0
        },
        {
            "buffer" : 0,
            "byteLength" : 1536,
            "byteOffset" : 1536
        },
        {
            "buffer" : 0,
            "byteLength" : 2048,
            "byteOffset" : 3072
        },
        {
            "buffer" : 0,
            "byteLength" : 1024,
            "byteOffset" : 5120
        },
        {
            "buffer" : 0,
            "byteLength" : 504,
            "byteOffset" : 6144
        },
        {
            "buffer" : 0,
            "byteLength" : 1536,
            "byteOffset" : 6648
        },
        {
            "buffer" : 0,
            "byteLength" : 1536,
            "byteOffset" : 8184
        },
        {
            "buffer" : 0,
            "byteLength" : 2048,
            "byteOffset" : 9720
        },
        {
            "buffer" : 0,
            "byteLength" : 1024,
            "byteOffset" : 11768
        },
        {
            "buffer" : 0,
            "byteLength" : 1536,
            "byteOffset" : 12792
        },
        {
            "buffer" : 0,
            "byteLength" : 1536,
            "byteOffset" : 14328
        },
        {
            "buffer" : 0,
            "byteLength" : 2048,
            "byteOffset" : 15864
        },
        {
            "buffer" : 0,
            "byteLength" : 1024,
            "byteOffset" : 17912
        }
    ],
    "buffers" : [
        {
            "byteLength" : 18936,
            "uri" : "sciana.bin"
        }
    ]
}
