{
    "asset" : {
        "generator" : "Khronos glTF Blender I/O v1.3.48",
        "version" : "2.0"
    },
    "extensionsUsed" : [
        "KHR_texture_transform"
    ],
    "extensionsRequired" : [
        "KHR_texture_transform"
    ],
    "scene" : 0,
    "scenes" : [
        {
            "extras" : {
                "glTF2ExportSettings" : {
                    "export_animations" : 0,
                    "export_apply" : 1,
                    "export_extras" : 1,
                    "export_format" : "GLTF_SEPARATE",
                    "export_morph" : 0,
                    "export_normals" : 1,
                    "export_skins" : 0,
                    "export_tangents" : 1
                }
            },
            "name" : "Scene",
            "nodes" : [
                0,
                1,
                2,
                3
            ]
        }
    ],
    "nodes" : [
        {
            "mesh" : 0,
            "name" : "Suzanne",
            "translation" : [
                -0.015817750245332718,
                2.605863094329834,
                -0.6186912655830383
            ]
        },
        {
            "mesh" : 1,
            "name" : "Sphere",
            "translation" : [
                3.0475382804870605,
                2.1912155151367188,
                -0.7138112187385559
            ]
        },
        {
            "mesh" : 2,
            "name" : "Cube",
            "translation" : [
                -3.262507438659668,
                2.393974542617798,
                -0.6327962875366211
            ]
        },
        {
            "mesh" : 3,
            "name" : "Cube.001",
            "translation" : [
                0.29539060592651367,
                4.603387832641602,
                -4.94499397277832
            ]
        }
    ],
    "materials" : [
        {
            "emissiveFactor" : [
                0,
                0,
                0
            ],
            "extras" : {
                "envMap" : "/map.jpg"
            },
            "name" : "Metal",
            "normalTexture" : {
                "index" : 0,
                "texCoord" : 0
            },
            "occlusionTexture" : {
                "index" : 1,
                "texCoord" : 0
            },
            "pbrMetallicRoughness" : {
                "baseColorTexture" : {
                    "index" : 2,
                    "texCoord" : 0
                },
                "metallicRoughnessTexture" : {
                    "index" : 1,
                    "texCoord" : 0
                }
            }
        },
        {
            "alphaMode" : "BLEND",
            "emissiveFactor" : [
                0,
                0,
                0
            ],
            "name" : "Window--glass",
            "normalTexture" : {
                "extensions" : {
                    "KHR_texture_transform" : {
                        "offset" : [
                            0,
                            0.75
                        ],
                        "scale" : [
                            0.16666666666666666,
                            0.25
                        ]
                    }
                },
                "index" : 3,
                "scale" : 0.10000000149011612,
                "texCoord" : 0
            },
            "pbrMetallicRoughness" : {
                "baseColorFactor" : [
                    1,
                    1,
                    1,
                    0.699999988079071
                ],
                "metallicFactor" : 1,
                "roughnessFactor" : 0
            }
        }
    ],
    "meshes" : [
        {
            "name" : "Suzanne",
            "primitives" : [
                {
                    "attributes" : {
                        "POSITION" : 0,
                        "NORMAL" : 1,
                        "TANGENT" : 2,
                        "TEXCOORD_0" : 3
                    },
                    "indices" : 4,
                    "material" : 0
                }
            ]
        },
        {
            "name" : "Sphere",
            "primitives" : [
                {
                    "attributes" : {
                        "POSITION" : 5,
                        "NORMAL" : 6,
                        "TANGENT" : 7,
                        "TEXCOORD_0" : 8
                    },
                    "indices" : 9,
                    "material" : 0
                }
            ]
        },
        {
            "name" : "Cube.001",
            "primitives" : [
                {
                    "attributes" : {
                        "POSITION" : 10,
                        "NORMAL" : 11,
                        "TANGENT" : 12,
                        "TEXCOORD_0" : 13
                    },
                    "indices" : 14,
                    "material" : 0
                }
            ]
        },
        {
            "name" : "Cube",
            "primitives" : [
                {
                    "attributes" : {
                        "POSITION" : 15,
                        "NORMAL" : 16,
                        "TANGENT" : 17,
                        "TEXCOORD_0" : 18
                    },
                    "indices" : 14,
                    "material" : 1
                }
            ]
        }
    ],
    "textures" : [
        {
            "source" : 0
        },
        {
            "source" : 1
        },
        {
            "source" : 2
        },
        {
            "source" : 3
        }
    ],
    "images" : [
        {
            "mimeType" : "image/jpeg",
            "name" : "Metal012_2K_Normal",
            "uri" : "Metal012_2K_Normal.jpg"
        },
        {
            "mimeType" : "image/png",
            "name" : "Metal012_2K_Occlusion-Metal012_2K_Roughness-Metal012_2K_Metalness",
            "uri" : "Metal012_2K_Occlusion-Metal012_2K_Roughness-Metal012_2K_Metalness.png"
        },
        {
            "mimeType" : "image/jpeg",
            "name" : "Metal012_2K_Color",
            "uri" : "Metal012_2K_Color.jpg"
        },
        {
            "mimeType" : "image/jpeg",
            "name" : "Glass_Frosted_001_normal",
            "uri" : "Glass_Frosted_001_normal.jpg"
        }
    ],
    "accessors" : [
        {
            "bufferView" : 0,
            "componentType" : 5126,
            "count" : 3321,
            "max" : [
                1.325934886932373,
                0.9392361640930176,
                0.8223199844360352
            ],
            "min" : [
                -1.325934886932373,
                -0.9704862236976624,
                -0.7782661318778992
            ],
            "type" : "VEC3"
        },
        {
            "bufferView" : 1,
            "componentType" : 5126,
            "count" : 3321,
            "type" : "VEC3"
        },
        {
            "bufferView" : 2,
            "componentType" : 5126,
            "count" : 3321,
            "type" : "VEC4"
        },
        {
            "bufferView" : 3,
            "componentType" : 5126,
            "count" : 3321,
            "type" : "VEC2"
        },
        {
            "bufferView" : 4,
            "componentType" : 5123,
            "count" : 11808,
            "type" : "SCALAR"
        },
        {
            "bufferView" : 5,
            "componentType" : 5126,
            "count" : 559,
            "max" : [
                1.000000238418579,
                1,
                1.0000003576278687
            ],
            "min" : [
                -0.9999998211860657,
                -1,
                -1
            ],
            "type" : "VEC3"
        },
        {
            "bufferView" : 6,
            "componentType" : 5126,
            "count" : 559,
            "type" : "VEC3"
        },
        {
            "bufferView" : 7,
            "componentType" : 5126,
            "count" : 559,
            "type" : "VEC4"
        },
        {
            "bufferView" : 8,
            "componentType" : 5126,
            "count" : 559,
            "type" : "VEC2"
        },
        {
            "bufferView" : 9,
            "componentType" : 5123,
            "count" : 2880,
            "type" : "SCALAR"
        },
        {
            "bufferView" : 10,
            "componentType" : 5126,
            "count" : 24,
            "max" : [
                1,
                1,
                1
            ],
            "min" : [
                -1,
                -1,
                -1
            ],
            "type" : "VEC3"
        },
        {
            "bufferView" : 11,
            "componentType" : 5126,
            "count" : 24,
            "type" : "VEC3"
        },
        {
            "bufferView" : 12,
            "componentType" : 5126,
            "count" : 24,
            "type" : "VEC4"
        },
        {
            "bufferView" : 13,
            "componentType" : 5126,
            "count" : 24,
            "type" : "VEC2"
        },
        {
            "bufferView" : 14,
            "componentType" : 5123,
            "count" : 36,
            "type" : "SCALAR"
        },
        {
            "bufferView" : 15,
            "componentType" : 5126,
            "count" : 24,
            "max" : [
                4.430022239685059,
                4.430022239685059,
                -1.6424944400787354
            ],
            "min" : [
                -4.430022239685059,
                -4.430022239685059,
                -1.857505440711975
            ],
            "type" : "VEC3"
        },
        {
            "bufferView" : 16,
            "componentType" : 5126,
            "count" : 24,
            "type" : "VEC3"
        },
        {
            "bufferView" : 17,
            "componentType" : 5126,
            "count" : 24,
            "type" : "VEC4"
        },
        {
            "bufferView" : 18,
            "componentType" : 5126,
            "count" : 24,
            "type" : "VEC2"
        }
    ],
    "bufferViews" : [
        {
            "buffer" : 0,
            "byteLength" : 39852,
            "byteOffset" : 0
        },
        {
            "buffer" : 0,
            "byteLength" : 39852,
            "byteOffset" : 39852
        },
        {
            "buffer" : 0,
            "byteLength" : 53136,
            "byteOffset" : 79704
        },
        {
            "buffer" : 0,
            "byteLength" : 26568,
            "byteOffset" : 132840
        },
        {
            "buffer" : 0,
            "byteLength" : 23616,
            "byteOffset" : 159408
        },
        {
            "buffer" : 0,
            "byteLength" : 6708,
            "byteOffset" : 183024
        },
        {
            "buffer" : 0,
            "byteLength" : 6708,
            "byteOffset" : 189732
        },
        {
            "buffer" : 0,
            "byteLength" : 8944,
            "byteOffset" : 196440
        },
        {
            "buffer" : 0,
            "byteLength" : 4472,
            "byteOffset" : 205384
        },
        {
            "buffer" : 0,
            "byteLength" : 5760,
            "byteOffset" : 209856
        },
        {
            "buffer" : 0,
            "byteLength" : 288,
            "byteOffset" : 215616
        },
        {
            "buffer" : 0,
            "byteLength" : 288,
            "byteOffset" : 215904
        },
        {
            "buffer" : 0,
            "byteLength" : 384,
            "byteOffset" : 216192
        },
        {
            "buffer" : 0,
            "byteLength" : 192,
            "byteOffset" : 216576
        },
        {
            "buffer" : 0,
            "byteLength" : 72,
            "byteOffset" : 216768
        },
        {
            "buffer" : 0,
            "byteLength" : 288,
            "byteOffset" : 216840
        },
        {
            "buffer" : 0,
            "byteLength" : 288,
            "byteOffset" : 217128
        },
        {
            "buffer" : 0,
            "byteLength" : 384,
            "byteOffset" : 217416
        },
        {
            "buffer" : 0,
            "byteLength" : 192,
            "byteOffset" : 217800
        }
    ],
    "buffers" : [
        {
            "byteLength" : 217992,
            "uri" : "monkey.bin"
        }
    ]
}
